<svg id="Layer_1" data-name="Layer 1" xmlns="http://www.w3.org/2000/svg" viewBox="0 0 316.98 196.81"><title>global-groupcups</title><path d="M105.62,56.33l0,0.45-0.07.7c-0.57,2.37-2.31,3.9-4.32,5.06L90.54,143.15C88.14,153.33,72.71,159,54.92,159s-33.46-5.63-35.66-15.88L9.88,62.36A9.62,9.62,0,0,1,6.59,59.3a5.3,5.3,0,0,1-1-3.07L3.09,23.63a5.17,5.17,0,0,1-.09-1C3,19.4,5.85,17.28,8.4,16c11.3-5.87,35.72-7,47.48-7,6.08,0,48,.45,52.53,12a10.44,10.44,0,0,1,.16,3.58Z" transform="translate(-3 -8.92)" style="fill:#673d1c"/><path d="M14.83,58.88c10.35,4,37.37,5.05,40.78,5.05,4.08,0,41.75-1.49,44.61-7.87,0.3-3.26,2.34-25.25,2.94-31.69a3.1,3.1,0,0,0-1-3c-7.51-5.76-41.8-7-46.3-7-5.63,0-37.16,1.07-45.88,6.83a3.56,3.56,0,0,0-1.44,3.09l2.64,32.23c0.44,0.92,2.67,1.93,3.62,2.4" transform="translate(-3 -8.92)" style="fill:#fff"/><path d="M95.47,64.67c-13.5,4.4-36.09,4.66-39.85,4.66s-26.53-.27-40-4.68l9,77.56c1.34,5.63,12.19,11.37,30.33,11.37s28.83-5.71,30.31-11.42Z" transform="translate(-3 -8.92)" style="fill:#fff"/><path d="M14.77,27.12C14.77,23.2,33.22,20,56,20s41.2,3.17,41.2,7.09S78.73,34.21,56,34.21,14.77,31,14.77,27.12" transform="translate(-3 -8.92)" style="fill:#673d1c"/><path d="M211.28,56.33l0,0.45-0.07.7c-0.57,2.37-2.31,3.9-4.32,5.06l-10.66,80.61C193.8,153.33,178.36,159,160.58,159s-33.46-5.63-35.66-15.88l-9.38-80.74a9.62,9.62,0,0,1-3.29-3.07,5.3,5.3,0,0,1-1-3.07l-2.5-32.59a5.17,5.17,0,0,1-.09-1c0-3.24,2.85-5.36,5.4-6.69,11.3-5.87,35.72-7,47.48-7,6.08,0,48,.45,52.53,12a10.44,10.44,0,0,1,.16,3.58Z" transform="translate(-3 -8.92)" style="fill:#673d1c"/><path d="M120.49,58.88c10.35,4,37.37,5.05,40.78,5.05,4.08,0,41.75-1.49,44.61-7.87,0.3-3.26,2.34-25.25,2.94-31.69a3.1,3.1,0,0,0-1-3c-7.51-5.76-41.8-7-46.3-7-5.63,0-37.16,1.07-45.88,6.83a3.56,3.56,0,0,0-1.44,3.09l2.64,32.23c0.44,0.92,2.67,1.93,3.62,2.4" transform="translate(-3 -8.92)" style="fill:#fff"/><path d="M201.13,64.67c-13.5,4.4-36.09,4.66-39.85,4.66s-26.53-.27-40-4.68l9,77.56c1.34,5.63,12.19,11.37,30.33,11.37s28.83-5.71,30.31-11.42Z" transform="translate(-3 -8.92)" style="fill:#fff"/><path d="M120.43,27.12c0-3.92,18.45-7.09,41.2-7.09s41.2,3.17,41.2,7.09-18.45,7.09-41.2,7.09-41.2-3.18-41.2-7.09" transform="translate(-3 -8.92)" style="fill:#673d1c"/><path d="M316.94,56.33l0,0.45-0.07.7c-0.57,2.37-2.31,3.9-4.32,5.06l-10.66,80.61C299.46,153.33,284,159,266.24,159s-33.46-5.63-35.66-15.88L221.2,62.36a9.62,9.62,0,0,1-3.29-3.07,5.3,5.3,0,0,1-1-3.07l-2.5-32.59a5.17,5.17,0,0,1-.09-1c0-3.24,2.85-5.36,5.4-6.69,11.3-5.87,35.72-7,47.48-7,6.08,0,48,.45,52.53,12a10.44,10.44,0,0,1,.16,3.58Z" transform="translate(-3 -8.92)" style="fill:#673d1c"/><path d="M226.15,58.88c10.35,4,37.37,5.05,40.78,5.05,4.08,0,41.75-1.49,44.61-7.87,0.3-3.26,2.34-25.25,2.94-31.69a3.1,3.1,0,0,0-1-3c-7.51-5.76-41.8-7-46.3-7-5.63,0-37.16,1.07-45.88,6.83a3.56,3.56,0,0,0-1.44,3.09l2.64,32.23c0.44,0.92,2.67,1.93,3.62,2.4" transform="translate(-3 -8.92)" style="fill:#fff"/><path d="M306.79,64.67c-13.5,4.4-36.09,4.66-39.85,4.66s-26.53-.27-40-4.68l9,77.56c1.34,5.63,12.19,11.37,30.33,11.37s28.83-5.71,30.31-11.42Z" transform="translate(-3 -8.92)" style="fill:#fff"/><path d="M226.09,27.12c0-3.92,18.45-7.09,41.2-7.09s41.2,3.17,41.2,7.09-18.45,7.09-41.2,7.09-41.2-3.18-41.2-7.09" transform="translate(-3 -8.92)" style="fill:#673d1c"/><path d="M264.11,69.53l0,0.45-0.07.7c-0.57,2.37-2.31,3.9-4.32,5.06L249,156.36c-2.4,10.18-17.83,15.83-35.62,15.83s-33.46-5.63-35.66-15.88l-9.38-80.74a9.62,9.62,0,0,1-3.29-3.07,5.3,5.3,0,0,1-1-3.07l-2.5-32.59a5.17,5.17,0,0,1-.09-1c0-3.24,2.85-5.36,5.4-6.69,11.3-5.87,35.72-7,47.48-7,6.08,0,48,.45,52.53,12a10.44,10.44,0,0,1,.16,3.58Z" transform="translate(-3 -8.92)" style="fill:#673d1c"/><path d="M173.32,72.09c10.35,4,37.37,5.05,40.78,5.05,4.08,0,41.75-1.49,44.61-7.87C259,66,261.05,44,261.65,37.58a3.1,3.1,0,0,0-1-3c-7.51-5.76-41.8-7-46.3-7-5.63,0-37.16,1.07-45.88,6.83a3.56,3.56,0,0,0-1.44,3.09l2.64,32.23c0.44,0.92,2.67,1.93,3.62,2.4" transform="translate(-3 -8.92)" style="fill:#fff"/><path d="M254,77.88c-13.5,4.4-36.09,4.66-39.85,4.66s-26.53-.27-40-4.68l9,77.56c1.34,5.63,12.19,11.37,30.33,11.37s28.83-5.71,30.31-11.42Z" transform="translate(-3 -8.92)" style="fill:#fff"/><path d="M173.26,40.32c0-3.92,18.45-7.09,41.2-7.09s41.2,3.17,41.2,7.09-18.45,7.09-41.2,7.09-41.2-3.18-41.2-7.09" transform="translate(-3 -8.92)" style="fill:#673d1c"/><path d="M158.45,69.53l0,0.45-0.07.7c-0.57,2.37-2.31,3.9-4.32,5.06l-10.66,80.61c-2.4,10.18-17.83,15.83-35.62,15.83s-33.46-5.63-35.66-15.88L62.71,75.57a9.62,9.62,0,0,1-3.29-3.07,5.3,5.3,0,0,1-1-3.07l-2.5-32.59a5.17,5.17,0,0,1-.09-1c0-3.24,2.85-5.36,5.4-6.69,11.3-5.87,35.72-7,47.48-7,6.08,0,48,.45,52.53,12a10.44,10.44,0,0,1,.16,3.58Z" transform="translate(-3 -8.92)" style="fill:#673d1c"/><path d="M67.66,72.09c10.35,4,37.37,5.05,40.78,5.05,4.08,0,41.75-1.49,44.61-7.87C153.36,66,155.39,44,156,37.58a3.1,3.1,0,0,0-1-3c-7.51-5.76-41.8-7-46.3-7-5.63,0-37.16,1.07-45.88,6.83a3.56,3.56,0,0,0-1.44,3.09L64,69.68c0.44,0.92,2.67,1.93,3.62,2.4" transform="translate(-3 -8.92)" style="fill:#fff"/><path d="M148.3,77.88c-13.5,4.4-36.09,4.66-39.85,4.66s-26.53-.27-40-4.68l9,77.56c1.34,5.63,12.19,11.37,30.33,11.37s28.83-5.71,30.31-11.42Z" transform="translate(-3 -8.92)" style="fill:#fff"/><path d="M67.6,40.32c0-3.92,18.45-7.09,41.2-7.09S150,36.4,150,40.32s-18.45,7.09-41.2,7.09-41.2-3.18-41.2-7.09" transform="translate(-3 -8.92)" style="fill:#673d1c"/><path d="M217.21,90l0,0.51-0.07.79c-0.64,2.68-2.61,4.4-4.87,5.71l-12,90.91c-2.7,11.48-20.11,17.86-40.17,17.86s-37.73-6.35-40.21-17.91L109.22,96.76a10.85,10.85,0,0,1-3.71-3.46,6,6,0,0,1-1.13-3.46l-2.82-36.76a5.83,5.83,0,0,1-.11-1.11c0-3.65,3.22-6,6.09-7.54,12.75-6.62,40.28-7.94,53.55-7.94,6.86,0,54.17.51,59.24,13.51a11.78,11.78,0,0,1,.19,4Z" transform="translate(-3 -8.92)" style="fill:#673d1c"/><path d="M114.82,92.83c11.68,4.51,42.15,5.7,46,5.7,4.6,0,47.09-1.68,50.31-8.88,0.34-3.68,2.64-28.47,3.32-35.74a3.49,3.49,0,0,0-1.1-3.4c-8.47-6.49-47.14-7.93-52.22-7.93-6.35,0-41.91,1.21-51.74,7.7a4,4,0,0,0-1.62,3.49l3,36.35c0.49,1,3,2.18,4.09,2.71" transform="translate(-3 -8.92)" style="fill:#fff"/><path d="M205.76,99.36c-15.23,5-40.7,5.26-44.95,5.26s-29.92-.31-45.15-5.28l10.16,87.47c1.51,6.35,13.75,12.82,34.2,12.82s32.52-6.44,34.18-12.88Z" transform="translate(-3 -8.92)" style="fill:#fff"/><path d="M114.75,57c0-4.42,20.8-8,46.47-8s46.47,3.58,46.47,8-20.81,8-46.47,8-46.47-3.58-46.47-8" transform="translate(-3 -8.92)" style="fill:#673d1c"/><path d="M142.29,123.7c-2.27,0-3.73.88-4.29,2.59a7.71,7.71,0,0,0-.18,2.73v13a10,10,0,0,0,.14,2.55,3.46,3.46,0,0,0,1.64,2.13c0.71,0.5,1.46.64,3.3,0.64h3.29a24.07,24.07,0,0,0,4-.28,11.68,11.68,0,0,0,5.56-2.88,11.89,11.89,0,0,0,3.8-8.68,11.76,11.76,0,0,0-3.91-8.8,12.15,12.15,0,0,0-8.57-3h-4.79Zm3.33,7.27h0.64a6.54,6.54,0,0,1,3,.5,4.54,4.54,0,0,1,2.52,4.08,4.76,4.76,0,0,1-1.91,3.76c-0.92.64-1.56,0.74-4.25,0.78V131Z" transform="translate(-3 -8.92)" style="fill:#f58220"/><path d="M170.83,123.7a12.07,12.07,0,0,1,8.55,3,11.7,11.7,0,0,1,3.89,8.76,11.87,11.87,0,0,1-3.78,8.66,11.7,11.7,0,0,1-5.54,2.86,23.33,23.33,0,0,1-4,.29h-3.31c-1.84,0-2.57-.14-3.26-0.63a3.37,3.37,0,0,1-1.61-2.1,9.74,9.74,0,0,1-.14-2.54V129a7.8,7.8,0,0,1,.17-2.72c0.56-1.67,2-2.54,4.23-2.54h4.8Zm-1.53,16.44,0.07,0c2.69,0,3.35-.14,4.3-0.79a4.84,4.84,0,0,0,1.95-3.82,4.62,4.62,0,0,0-2.56-4.15,6.68,6.68,0,0,0-3.06-.5h-0.7v9.28Z" transform="translate(-3 -8.92)" style="fill:#eb4498"/></svg>